HIERARCHY
ROOT hip
{
  OFFSET 5.51535 103.731 -2.80141
  CHANNELS 6 Xposition Yposition Zposition Zrotation Xrotation Yrotation
  JOINT abdomen
  {
    OFFSET 0 -1.186 -1.5018
    CHANNELS 6 Xposition Yposition Zposition Zrotation Xrotation Yrotation
    JOINT abdomen2
    {
      OFFSET 0 9.964 0.2134
      CHANNELS 6 Xposition Yposition Zposition Zrotation Xrotation Yrotation
      JOINT chest
      {
        OFFSET 0 13.134 -3.2573
        CHANNELS 6 Xposition Yposition Zposition Zrotation Xrotation Yrotation
        JOINT neck
        {
          OFFSET 0 20.686 -1.6905
          CHANNELS 6 Xposition Yposition Zposition Zrotation Xrotation Yrotation
          JOINT head
          {
            OFFSET 0 7.23801 -0.1237
            CHANNELS 6 Xposition Yposition Zposition Zrotation Xrotation Yrotation
            End Site
            {
              OFFSET 0 0 0
            }
          }
        }
        JOINT lCollar
        {
          OFFSET 1.7069 20.075 5.0056
          CHANNELS 6 Xposition Yposition Zposition Zrotation Xrotation Yrotation
          JOINT lShldr
          {
            OFFSET 13.6458 -0.0470195 -4.849
            CHANNELS 6 Xposition Yposition Zposition Zrotation Xrotation Yrotation
            JOINT lForeArm
            {
              OFFSET 28.3255 -0.97589 2.2888
              CHANNELS 6 Xposition Yposition Zposition Zrotation Xrotation Yrotation
              JOINT lHand
              {
                OFFSET 22.1583 -0.529998 10.8316
                CHANNELS 6 Xposition Yposition Zposition Zrotation Xrotation Yrotation
                JOINT lThumb1
                {
                  OFFSET 0.786 0.111997 2.5817
                  CHANNELS 6 Xposition Yposition Zposition Zrotation Xrotation Yrotation
                  JOINT lThumb2
                  {
                    OFFSET 0.360097 -0.877999 4.2331
                    CHANNELS 6 Xposition Yposition Zposition Zrotation Xrotation Yrotation
                    JOINT lThumb2_End
                    {
                      OFFSET 1.8127 -1.21601 2.2227
                      CHANNELS 6 Xposition Yposition Zposition Zrotation Xrotation Yrotation
                      End Site
                      {
                        OFFSET 0.0180981 -0.012195 0.0222007
                      }
                    }
                  }
                }
                JOINT lCarpal1
                {
                  OFFSET 0.9571 1.114 1.7695
                  CHANNELS 6 Xposition Yposition Zposition Zrotation Xrotation Yrotation
                  JOINT lIndex1
                  {
                    OFFSET 4.12461 0.486992 4.1451
                    CHANNELS 6 Xposition Yposition Zposition Zrotation Xrotation Yrotation
                    JOINT lIndex2
                    {
                      OFFSET 3.4052 -1.45401 2.7682
                      CHANNELS 6 Xposition Yposition Zposition Zrotation Xrotation Yrotation
                      JOINT lIndex2_End
                      {
                        OFFSET 1.45309 -1.79499 1.2713
                        CHANNELS 6 Xposition Yposition Zposition Zrotation Xrotation Yrotation
                        End Site
                        {
                          OFFSET 0.0144979 -0.0179083 0.0126995
                        }
                      }
                    }
                  }
                  JOINT lMid1
                  {
                    OFFSET 5.6954 0.209987 2.1184
                    CHANNELS 6 Xposition Yposition Zposition Zrotation Xrotation Yrotation
                    JOINT lMid2
                    {
                      OFFSET 3.9766 -1.53999 2.3863
                      CHANNELS 6 Xposition Yposition Zposition Zrotation Xrotation Yrotation
                      JOINT lMid2_End
                      {
                        OFFSET 1.4042 -1.926 1.125
                        CHANNELS 6 Xposition Yposition Zposition Zrotation Xrotation Yrotation
                        End Site
                        {
                          OFFSET 0.013999 -0.0193044 0.011301
                        }
                      }
                    }
                  }
                }
                JOINT lCarpal2
                {
                  OFFSET 2.0956 0.66 -0.3894
                  CHANNELS 6 Xposition Yposition Zposition Zrotation Xrotation Yrotation
                  JOINT lRing1
                  {
                    OFFSET 5.0395 -0.090013 2.4971
                    CHANNELS 6 Xposition Yposition Zposition Zrotation Xrotation Yrotation
                    JOINT lRing2
                    {
                      OFFSET 3.7921 -1.55199 1.4806
                      CHANNELS 6 Xposition Yposition Zposition Zrotation Xrotation Yrotation
                      JOINT lRing2_End
                      {
                        OFFSET 1.4655 -1.808 0.9609
                        CHANNELS 6 Xposition Yposition Zposition Zrotation Xrotation Yrotation
                        End Site
                        {
                          OFFSET 0.0147015 -0.0181014 0.00959957
                        }
                      }
                    }
                  }
                  JOINT lPinky1
                  {
                    OFFSET 4.9141 -1.269 0.3591
                    CHANNELS 6 Xposition Yposition Zposition Zrotation Xrotation Yrotation
                    JOINT lPinky2
                    {
                      OFFSET 3.1477 -1.685 0.8462
                      CHANNELS 6 Xposition Yposition Zposition Zrotation Xrotation Yrotation
                      JOINT lPinky2_End
                      {
                        OFFSET 0.805498 -1.58501 0.795499
                        CHANNELS 6 Xposition Yposition Zposition Zrotation Xrotation Yrotation
                        End Site
                        {
                          OFFSET 0.00809703 -0.0157944 0.00799848
                        }
                      }
                    }
                  }
                }
              }
            }
          }
        }
        JOINT rCollar
        {
          OFFSET -1.7069 20.075 5.0056
          CHANNELS 6 Xposition Yposition Zposition Zrotation Xrotation Yrotation
          JOINT rShldr
          {
            OFFSET -13.6458 -0.0470107 -4.849
            CHANNELS 6 Xposition Yposition Zposition Zrotation Xrotation Yrotation
            JOINT rForeArm
            {
              OFFSET -28.3255 -0.975895 2.2888
              CHANNELS 6 Xposition Yposition Zposition Zrotation Xrotation Yrotation
              JOINT rHand
              {
                OFFSET -22.1583 -0.530007 10.8316
                CHANNELS 6 Xposition Yposition Zposition Zrotation Xrotation Yrotation
                JOINT rThumb1
                {
                  OFFSET -0.785997 0.112005 2.5817
                  CHANNELS 6 Xposition Yposition Zposition Zrotation Xrotation Yrotation
                  JOINT rThumb2
                  {
                    OFFSET -0.360106 -0.877994 4.2331
                    CHANNELS 6 Xposition Yposition Zposition Zrotation Xrotation Yrotation
                    JOINT rThumb2_End
                    {
                      OFFSET -1.8127 -1.216 2.2227
                      CHANNELS 6 Xposition Yposition Zposition Zrotation Xrotation Yrotation
                      End Site
                      {
                        OFFSET -0.0180972 -0.0121973 0.0222005
                      }
                    }
                  }
                }
                JOINT rCarpal1
                {
                  OFFSET -0.9571 1.114 1.7695
                  CHANNELS 6 Xposition Yposition Zposition Zrotation Xrotation Yrotation
                  JOINT rIndex1
                  {
                    OFFSET -4.1246 0.487011 4.1451
                    CHANNELS 6 Xposition Yposition Zposition Zrotation Xrotation Yrotation
                    JOINT rIndex2
                    {
                      OFFSET -3.4052 -1.45401 2.7682
                      CHANNELS 6 Xposition Yposition Zposition Zrotation Xrotation Yrotation
                      JOINT rIndex2_End
                      {
                        OFFSET -1.4531 -1.795 1.2713
                        CHANNELS 6 Xposition Yposition Zposition Zrotation Xrotation Yrotation
                        End Site
                        {
                          OFFSET -0.0145077 -0.0180048 0.0127017
                        }
                      }
                    }
                  }
                  JOINT rMid1
                  {
                    OFFSET -5.6954 0.210002 2.1184
                    CHANNELS 6 Xposition Yposition Zposition Zrotation Xrotation Yrotation
                    JOINT rMid2
                    {
                      OFFSET -3.9766 -1.54 2.3863
                      CHANNELS 6 Xposition Yposition Zposition Zrotation Xrotation Yrotation
                      JOINT rMid2_End
                      {
                        OFFSET -1.4042 -1.926 1.125
                        CHANNELS 6 Xposition Yposition Zposition Zrotation Xrotation Yrotation
                        End Site
                        {
                          OFFSET -0.0139948 -0.0192916 0.0112994
                        }
                      }
                    }
                  }
                }
                JOINT rCarpal2
                {
                  OFFSET -2.0956 0.66 -0.3894
                  CHANNELS 6 Xposition Yposition Zposition Zrotation Xrotation Yrotation
                  JOINT rRing1
                  {
                    OFFSET -5.03951 -0.0899879 2.4971
                    CHANNELS 6 Xposition Yposition Zposition Zrotation Xrotation Yrotation
                    JOINT rRing2
                    {
                      OFFSET -3.7921 -1.55201 1.4806
                      CHANNELS 6 Xposition Yposition Zposition Zrotation Xrotation Yrotation
                      JOINT rRing2_End
                      {
                        OFFSET -1.4655 -1.808 0.960901
                        CHANNELS 6 Xposition Yposition Zposition Zrotation Xrotation Yrotation
                        End Site
                        {
                          OFFSET -0.0146934 -0.0180999 0.00959832
                        }
                      }
                    }
                  }
                  JOINT rPinky1
                  {
                    OFFSET -4.91411 -1.26899 0.359202
                    CHANNELS 6 Xposition Yposition Zposition Zrotation Xrotation Yrotation
                    JOINT rPinky2
                    {
                      OFFSET -3.14769 -1.68501 0.846199
                      CHANNELS 6 Xposition Yposition Zposition Zrotation Xrotation Yrotation
                      JOINT rPinky2_End
                      {
                        OFFSET -0.805498 -1.585 0.7955
                        CHANNELS 6 Xposition Yposition Zposition Zrotation Xrotation Yrotation
                        End Site
                        {
                          OFFSET -0.00810035 -0.0158035 0.00800029
                        }
                      }
                    }
                  }
                }
              }
            }
          }
        }
      }
    }
  }
  JOINT lThigh
  {
    OFFSET 8.367 -8.2066 0.5982
    CHANNELS 6 Xposition Yposition Zposition Zrotation Xrotation Yrotation
    JOINT lShin
    {
      OFFSET 2.1923 -43.463 -0.4932
      CHANNELS 6 Xposition Yposition Zposition Zrotation Xrotation Yrotation
      JOINT lFoot
      {
        OFFSET 0.733301 -45.8593 -2.6451
        CHANNELS 6 Xposition Yposition Zposition Zrotation Xrotation Yrotation
        End Site
        {
          OFFSET 2.6618 -4.2699 12.3931
        }
      }
    }
  }
  JOINT rThigh
  {
    OFFSET -8.367 -8.2066 0.5982
    CHANNELS 6 Xposition Yposition Zposition Zrotation Xrotation Yrotation
    JOINT rShin
    {
      OFFSET -2.1923 -43.463 -0.4931
      CHANNELS 6 Xposition Yposition Zposition Zrotation Xrotation Yrotation
      JOINT rFoot
      {
        OFFSET -0.733299 -45.8593 -2.6451
        CHANNELS 6 Xposition Yposition Zposition Zrotation Xrotation Yrotation
        End Site
        {
          OFFSET -2.6618 -4.2699 12.3931
        }
      }
    }
  }
}
MOTION
Frames:	4
Frame Time:	0.0333333
61.81 35.691 88.9561 44.6782 -65.4294 -127.009 6.67991e-007 -1.18599 -1.5018 -3.44079 -1.24855 -1.58769 -1.64935e-006 9.964 0.213401 -6.91713 -2.39897 -3.24854 -2.66048e-006 13.134 -3.25729 -6.91715 -2.399 -3.24855 -1.20859e-006 20.686 -1.6905 -3.8397 -2.73979 0.353367 -6.30539e-006 7.23803 -0.123708 15.6785 -36.3135 15.7565 1.7069 20.075 5.0056 -3.37594 -2.82795 -4.33095 13.6458 -0.0470132 -4.849 -28.0655 -33.2009 -45.173 28.3255 -0.975898 2.2888 -9.69962 -10.6414 -17.1735 22.1583 -0.529996 10.8316 14.4196 3.10326 -7.93511 0.786004 0.111996 2.5817 22.3713 -1.19473 -17.6149 0.360097 -0.878 4.2331 -3.72217 -0.224248 -6.80075 1.8127 -1.21601 2.2227 -0.00635993 -0.000698161 -0.0116022 0.9571 1.114 1.7695 1.15295e-014 -3.18055e-015 1.59028e-015 4.1246 0.486993 4.1451 17.6107 -2.46805 -4.01476 3.4052 -1.45401 2.7682 11.1383 -5.43876 -4.11658 1.4531 -1.79499 1.2713 11.7192 -5.74779 -4.30522 5.6954 0.209987 2.1184 27.6318 -12.9232 -8.83556 3.9766 -1.53999 2.3863 14.4696 -7.98953 -5.17774 1.4042 -1.926 1.125 21.3881 -12.3004 -6.96764 2.0956 0.66 -0.3894 1.15295e-014 -3.18055e-015 1.59028e-015 5.0395 -0.0900135 2.4971 37.0612 -20.7775 -6.25753 3.7921 -1.55199 1.4806 16.0262 -9.79373 -6.53947 1.4655 -1.808 0.960901 23.118 -14.7679 -8.60959 4.9141 -1.269 0.359099 44.4998 -23.9515 -0.573549 3.1477 -1.685 0.8462 17.8528 -11.721 -6.8996 0.805498 -1.58501 0.795499 15.5401 -10.0548 -6.1911 -1.7069 20.075 5.0056 -37.0236 -0.326459 -2.36607 -13.6458 -0.0470131 -4.849 55.8636 -4.05714 77.3669 -28.3255 -0.975886 2.2888 6.19462 -18.1238 6.10756 -22.1583 -0.530012 10.8316 -38.4161 -19.2324 -5.57401 -0.786 0.112004 2.5817 -0.291968 -3.6038 2.40151 -0.360105 -0.877992 4.2331 -0.740919 0.667999 -2.28607 -1.81269 -1.216 2.2227 -0.82376 0.746185 -2.54665 -0.9571 1.114 1.7695 -3.18055e-015 -6.36111e-015 -3.18055e-015 -4.1246 0.487011 4.1451 -1.79349 -0.461646 -0.0880487 -3.4052 -1.45401 2.7682 -1.72809 -0.580843 0.234203 -1.4531 -1.795 1.2713 -1.30702 -0.441556 0.184447 -5.6954 0.210002 2.1184 -14.6593 -5.58269 1.29376 -3.9766 -1.54 2.3863 -10.5009 -4.07658 1.07719 -1.4042 -1.926 1.125 -12.0077 -4.67625 1.17027 -2.0956 0.66 -0.3894 -3.18055e-015 -6.36111e-015 -3.18055e-015 -5.03951 -0.0899869 2.4971 -27.9397 -11.9674 -2.43815 -3.7921 -1.55201 1.4806 -12.7706 -5.54614 1.70663 -1.4655 -1.808 0.960901 -11.9241 -5.16728 1.63169 -4.91411 -1.26899 0.359202 -40.299 -14.4762 -10.3707 -3.1477 -1.68501 0.846198 -11.9276 -5.51968 1.44307 -0.8055 -1.585 0.7955 -11.8094 -5.46332 1.43406 8.367 -8.2066 0.598201 43.0099 -45.6025 55.0892 2.19229 -43.463 -0.4932 -176.809 84.3107 177.886 0.733302 -45.8593 -2.64508 -2.99128 8.52027 -23.9889 -8.367 -8.20659 0.5982 -90.7159 -49.0004 -62.2926 -2.19224 -43.463 -0.493102 149.031 56.5491 -141.246 -0.733294 -45.8593 -2.64509 2.94855 9.74658 27.0343 
61.3269 35.2044 88.8773 58.4196 -65.5414 -114.9 -2.05747e-007 -1.186 -1.5018 -2.62297 -2.53195 -1.6618 4.46624e-007 9.964 0.213399 -5.32596 -4.98386 -3.44284 -7.14743e-007 13.134 -3.2573 -5.32596 -4.98388 -3.44284 -4.35439e-005 20.6861 -1.69058 -4.051 -1.90776 0.848191 -1.2873e-005 7.23803 -0.123732 15.6744 -35.5944 15.6515 1.7069 20.075 5.0056 -1.96723 -2.80322 -1.54747 13.6458 -0.0470098 -4.849 -31.2998 -29.877 -46.7919 28.3255 -0.975911 2.28881 -9.66601 -10.4559 -17.0938 22.1583 -0.529992 10.8316 15.0917 2.26624 -7.99912 0.786004 0.111997 2.5817 22.3713 -1.19472 -17.6149 0.360097 -0.877999 4.2331 -3.72217 -0.224251 -6.80074 1.8127 -1.21601 2.2227 -0.00636874 -0.000712552 -0.0116003 0.9571 1.114 1.7695 -2.38542e-015 -1.59028e-015 -0 4.1246 0.486992 4.1451 17.6108 -2.46787 -4.01479 3.4052 -1.45401 2.7682 11.1382 -5.43879 -4.11657 1.4531 -1.79499 1.2713 11.7192 -5.74779 -4.30521 5.6954 0.209987 2.1184 27.6318 -12.9233 -8.83555 3.9766 -1.53999 2.3863 14.4697 -7.98938 -5.17788 1.4042 -1.926 1.125 21.3881 -12.3004 -6.96762 2.0956 0.66 -0.3894 -2.38542e-015 -1.59028e-015 -0 5.0395 -0.0900131 2.4971 37.0612 -20.7775 -6.25755 3.7921 -1.55199 1.4806 16.0262 -9.79375 -6.53945 1.4655 -1.808 0.960901 23.118 -14.7679 -8.60959 4.9141 -1.269 0.3591 44.4998 -23.9515 -0.573545 3.1477 -1.685 0.8462 17.8528 -11.7211 -6.89957 0.805498 -1.58501 0.795501 15.5401 -10.0548 -6.19109 -1.7069 20.075 5.0056 -36.1535 -0.313861 -2.20525 -13.6458 -0.0470065 -4.849 56.5211 -3.29145 77.4084 -28.3255 -0.975896 2.28881 6.44046 -18.4174 5.41764 -22.1583 -0.530017 10.8316 -38.0262 -16.991 -3.44341 -0.786001 0.112006 2.5817 -0.316218 -3.60305 2.40276 -0.360105 -0.877995 4.2331 -0.731916 0.659565 -2.25784 -1.81269 -1.216 2.2227 -0.820045 0.742658 -2.53489 -0.9571 1.114 1.7695 6.36111e-015 -3.97569e-015 -0 -4.12461 0.487012 4.1451 -1.79108 -0.452653 -0.104194 -3.4052 -1.45401 2.7682 -1.7101 -0.574764 0.231873 -1.4531 -1.795 1.2713 -1.27038 -0.429267 0.17978 -5.6954 0.210001 2.1184 -14.6479 -5.56972 1.29609 -3.9766 -1.54 2.3863 -10.4636 -4.06178 1.0747 -1.4042 -1.926 1.125 -11.97 -4.66122 1.16812 -2.0956 0.66 -0.3894 6.36111e-015 -3.97569e-015 -0 -5.03951 -0.0899879 2.4971 -27.9171 -11.9649 -2.4245 -3.7921 -1.55201 1.4806 -12.7464 -5.53529 1.70456 -1.4655 -1.808 0.9609 -11.8931 -5.15339 1.62883 -4.91411 -1.26899 0.359203 -40.2247 -14.4662 -10.3475 -3.1477 -1.68501 0.846198 -11.8639 -5.48942 1.43842 -0.805501 -1.585 0.795499 -11.7398 -5.43029 1.42889 8.367 -8.2066 0.5982 50.6333 -48.8776 61.3543 2.19229 -43.463 -0.493192 -177.164 83.7441 178.254 0.733302 -45.8593 -2.64509 -2.73487 8.55895 -24.2334 -8.367 -8.2066 0.598203 -92.9025 -49.6896 -69.6719 -2.19231 -43.463 -0.493098 148.651 56.9702 -140.903 -0.733317 -45.8593 -2.6451 3.5075 9.72365 25.6126 
60.7521 34.7729 88.8974 67.4671 -64.7683 -106.708 -1.06804e-006 -1.186 -1.5018 -2.00018 -3.45084 -1.65601 1.45313e-007 9.964 0.213397 -4.11071 -6.84006 -3.44113 -4.4643e-007 13.134 -3.2573 -4.1107 -6.84007 -3.44114 -4.64405e-005 20.6862 -1.6906 -4.21832 -0.85304 1.26519 -5.16701e-006 7.23802 -0.123708 15.7092 -35.0663 15.593 1.7069 20.075 5.0056 -1.13148 -2.7765 -0.0320774 13.6458 -0.0470126 -4.849 -33.3863 -27.2981 -47.4082 28.3255 -0.975912 2.2888 -10.0755 -9.89893 -17.3844 22.1583 -0.529995 10.8316 15.9477 1.48611 -7.78157 0.786003 0.111997 2.5817 22.3713 -1.19467 -17.6149 0.360099 -0.877999 4.2331 -3.72217 -0.224249 -6.80075 1.8127 -1.21601 2.2227 -0.0063827 -0.000737735 -0.0115949 0.9571 1.114 1.7695 5.56597e-015 -1.59028e-015 -1.59028e-015 4.1246 0.486991 4.1451 17.6108 -2.46788 -4.0148 3.4052 -1.45401 2.7682 11.1382 -5.43889 -4.11653 1.4531 -1.79499 1.2713 11.7192 -5.74779 -4.30521 5.6954 0.209987 2.1184 27.6318 -12.9233 -8.83553 3.9766 -1.53999 2.3863 14.4697 -7.98939 -5.17787 1.4042 -1.926 1.125 21.3881 -12.3004 -6.96759 2.0956 0.66 -0.3894 5.56597e-015 -1.59028e-015 -1.59028e-015 5.0395 -0.090013 2.4971 37.0612 -20.7775 -6.25754 3.7921 -1.55199 1.4806 16.0262 -9.79374 -6.53945 1.4655 -1.808 0.960899 23.118 -14.7679 -8.60959 4.9141 -1.269 0.359103 44.4998 -23.9515 -0.573513 3.1477 -1.685 0.846199 17.8527 -11.7211 -6.89953 0.805498 -1.58501 0.7955 15.5401 -10.0548 -6.19106 -1.7069 20.075 5.0056 -35.2981 -0.300219 -2.12907 -13.6458 -0.0470032 -4.849 56.8808 -2.64587 76.7853 -28.3255 -0.975899 2.28881 6.11813 -17.8197 5.08658 -22.1583 -0.53001 10.8316 -37.5122 -15.5939 -2.35001 -0.786 0.112005 2.5817 -0.340481 -3.60228 2.40404 -0.360105 -0.877993 4.2331 -0.72293 0.65113 -2.22967 -1.81269 -1.216 2.2227 -0.816313 0.739133 -2.52307 -0.9571 1.114 1.7695 -3.18055e-015 3.18055e-015 3.18055e-015 -4.12461 0.487012 4.1451 -1.78867 -0.44365 -0.120342 -3.4052 -1.45401 2.7682 -1.69238 -0.568766 0.229535 -1.4531 -1.795 1.2713 -1.23375 -0.417012 0.175108 -5.6954 0.210001 2.1184 -14.6365 -5.55677 1.29844 -3.9766 -1.54 2.3863 -10.4263 -4.04697 1.07219 -1.4042 -1.926 1.125 -11.9323 -4.6462 1.16599 -2.0956 0.66 -0.3894 -3.18055e-015 3.18055e-015 3.18055e-015 -5.03951 -0.089987 2.4971 -27.8945 -11.9625 -2.41084 -3.7921 -1.55201 1.4806 -12.7222 -5.52444 1.70249 -1.4655 -1.808 0.960901 -11.869 -5.14262 1.62663 -4.91411 -1.26899 0.359203 -40.1504 -14.4562 -10.3244 -3.1477 -1.68501 0.8462 -11.8001 -5.45914 1.43373 -0.805499 -1.585 0.795501 -11.6702 -5.39727 1.4237 8.367 -8.20659 0.598202 55.8848 -50.9639 65.5332 2.19229 -43.463 -0.493191 -177.41 83.3962 178.512 0.733304 -45.8593 -2.64511 -2.35599 7.9456 -24.6173 -8.367 -8.2066 0.598194 -94.1742 -49.4243 -74.1158 -2.1923 -43.463 -0.493099 148.115 57.5677 -140.422 -0.733289 -45.8593 -2.64509 4.65242 10.5315 25.9396 
60.1159 34.3909 88.8905 75.6341 -62.8909 -98.9475 7.24406e-007 -1.186 -1.5018 -1.25724 -4.28518 -1.73031 2.40799e-006 9.964 0.2134 -2.65518 -8.52927 -3.56972 -3.3204e-006 13.134 -3.2573 -2.65517 -8.52925 -3.56972 -4.379e-006 20.686 -1.69051 -4.54218 -0.017296 1.90789 -5.66136e-006 7.23801 -0.123709 15.6103 -34.474 15.6588 1.7069 20.075 5.0056 -0.069022 -2.74538 1.4197 13.6458 -0.0470091 -4.849 -36.2906 -24.2066 -48.3134 28.3255 -0.975905 2.28879 -10.0136 -10.4334 -17.4544 22.1583 -0.529992 10.8316 16.8332 1.67039 -8.03089 0.786003 0.111997 2.5817 22.3713 -1.19458 -17.6149 0.360099 -0.878 4.2331 -3.72219 -0.224245 -6.80078 1.8127 -1.21601 2.2227 -0.00641858 -0.000803853 -0.0115733 0.9571 1.114 1.7695 4.77083e-015 -1.59028e-015 -0 4.1246 0.486992 4.1451 17.6108 -2.46788 -4.0148 3.4052 -1.454 2.7682 11.1383 -5.43871 -4.1166 1.4531 -1.79499 1.2713 11.7192 -5.7478 -4.30521 5.6954 0.209988 2.1184 27.6317 -12.9234 -8.83549 3.9766 -1.53999 2.3863 14.4697 -7.98938 -5.17787 1.4042 -1.926 1.125 21.3881 -12.3005 -6.96752 2.0956 0.66 -0.3894 4.77083e-015 -1.59028e-015 -0 5.0395 -0.0900136 2.4971 37.0612 -20.7775 -6.25752 3.7921 -1.55199 1.4806 16.0262 -9.79378 -6.53941 1.4655 -1.808 0.960899 23.118 -14.7679 -8.60958 4.9141 -1.269 0.359101 44.4998 -23.9516 -0.573457 3.1477 -1.685 0.8462 17.8528 -11.721 -6.89962 0.805498 -1.58501 0.7955 15.5401 -10.0549 -6.19103 -1.7069 20.075 5.0056 -33.9294 -0.27814 -2.05939 -13.6458 -0.0470107 -4.849 57.0631 -2.4515 76.4717 -28.3255 -0.975893 2.28881 6.22093 -17.5907 4.34507 -22.1583 -0.530011 10.8316 -37.1753 -13.6173 -0.524801 -0.785999 0.112005 2.5817 -0.366656 -3.5945 2.40488 -0.360106 -0.877992 4.2331 -0.713913 0.642689 -2.20147 -1.8127 -1.216 2.2227 -0.812587 0.735609 -2.51131 -0.9571 1.114 1.7695 -3.18055e-015 -6.36111e-015 -0 -4.12461 0.487011 4.1451 -1.78627 -0.434634 -0.136495 -3.4052 -1.45401 2.7682 -1.67465 -0.562772 0.227226 -1.4531 -1.795 1.2713 -1.1971 -0.404767 0.170414 -5.6954 0.210001 2.1184 -14.6252 -5.54379 1.30078 -3.9766 -1.54 2.3863 -10.389 -4.03216 1.06969 -1.4042 -1.926 1.125 -11.8946 -4.63118 1.16382 -2.0956 0.66 -0.3894 -3.18055e-015 -6.36111e-015 -0 -5.03951 -0.0899881 2.49711 -27.8719 -11.96 -2.39719 -3.7921 -1.55201 1.4806 -12.698 -5.51359 1.7004 -1.4655 -1.808 0.960902 -11.8449 -5.13185 1.62441 -4.91411 -1.26899 0.359205 -40.0762 -14.4462 -10.3013 -3.1477 -1.68501 0.846198 -11.7329 -5.42724 1.42873 -0.805499 -1.585 0.795501 -11.5953 -5.36174 1.41807 8.367 -8.2066 0.5982 61.963 -53.0574 70.0162 2.19228 -43.463 -0.493196 -177.619 83.0088 178.721 0.733297 -45.8593 -2.6451 -1.65749 7.79765 -24.5657 -8.367 -8.20659 0.598202 -94.0832 -48.7613 -77.5037 -2.19226 -43.4631 -0.493116 147.278 58.4097 -139.666 -0.733297 -45.8593 -2.64508 6.08887 10.9734 26.1132 
